<svg width="79" height="16" viewBox="0 0 79 16" xmlns="http://www.w3.org/2000/svg">
<path d="M4.14189 15.6939C3.05256 15.6939 2.20389 15.4659 1.59589 15.0099C1.00056 14.5539 0.582557 13.9396 0.341891 13.1669C0.113891 12.3943 -0.000109367 11.5329 -0.000109367 10.5829V5.14895C-0.000109367 4.11028 0.113891 3.20462 0.341891 2.43195C0.582557 1.65928 1.00056 1.06395 1.59589 0.645948C2.20389 0.215282 3.05256 -5.13792e-05 4.14189 -5.13792e-05C5.10456 -5.13792e-05 5.86456 0.177282 6.42189 0.531949C6.99189 0.886615 7.39722 1.39328 7.63789 2.05195C7.89122 2.71062 8.01789 3.50228 8.01789 4.42695V5.64295H5.98489V4.55995C5.98489 3.98995 5.95322 3.48962 5.88989 3.05895C5.83922 2.61562 5.68722 2.27362 5.43389 2.03295C5.18056 1.79228 4.75622 1.67195 4.16089 1.67195C3.55289 1.67195 3.10956 1.80495 2.83089 2.07095C2.55222 2.32428 2.36856 2.69162 2.27989 3.17295C2.20389 3.64162 2.16589 4.19262 2.16589 4.82595V10.9249C2.16589 11.6976 2.22922 12.3119 2.35589 12.7679C2.48256 13.2113 2.69156 13.5279 2.98289 13.7179C3.27422 13.9079 3.66689 14.0029 4.16089 14.0029C4.74356 14.0029 5.16156 13.8763 5.41489 13.6229C5.66822 13.3569 5.82656 12.9959 5.88989 12.5399C5.95322 12.0839 5.98489 11.5519 5.98489 10.9439V9.80395H8.01789V10.9439C8.01789 11.8813 7.90389 12.7109 7.67589 13.4329C7.44789 14.1423 7.05522 14.6996 6.49789 15.1049C5.94056 15.4976 5.15522 15.6939 4.14189 15.6939ZM12.4952 15.6749C12.0645 15.6749 11.6845 15.5546 11.3552 15.3139C11.0259 15.0606 10.7662 14.7439 10.5762 14.3639C10.3862 13.9713 10.2912 13.5596 10.2912 13.1289C10.2912 12.4449 10.4052 11.8686 10.6332 11.3999C10.8612 10.9313 11.1715 10.5386 11.5642 10.2219C11.9695 9.89262 12.4319 9.60762 12.9512 9.36695C13.4832 9.12628 14.0405 8.89195 14.6232 8.66395V7.88495C14.6232 7.44162 14.5979 7.07428 14.5472 6.78295C14.4965 6.49162 14.3889 6.27628 14.2242 6.13695C14.0722 5.98495 13.8379 5.90895 13.5212 5.90895C13.2425 5.90895 13.0145 5.97228 12.8372 6.09895C12.6725 6.22562 12.5522 6.40928 12.4762 6.64995C12.4002 6.87795 12.3622 7.15028 12.3622 7.46695V8.01795L10.3482 7.94195C10.3735 6.72595 10.6522 5.83295 11.1842 5.26295C11.7162 4.68028 12.5395 4.38895 13.6542 4.38895C14.7435 4.38895 15.5162 4.68662 15.9722 5.28195C16.4282 5.87728 16.6562 6.73862 16.6562 7.86595V12.8819C16.6562 13.2239 16.6625 13.5533 16.6752 13.8699C16.7005 14.1866 16.7259 14.4843 16.7512 14.7629C16.7892 15.0289 16.8209 15.2823 16.8462 15.5229H14.9842C14.9462 15.3203 14.8955 15.0669 14.8322 14.7629C14.7815 14.4463 14.7435 14.1613 14.7182 13.9079C14.5915 14.3386 14.3445 14.7439 13.9772 15.1239C13.6225 15.4913 13.1285 15.6749 12.4952 15.6749ZM13.2932 13.9269C13.4959 13.9269 13.6859 13.8699 13.8632 13.7559C14.0405 13.6419 14.1989 13.5153 14.3382 13.3759C14.4775 13.2239 14.5725 13.1036 14.6232 13.0149V9.89895C14.3065 10.0763 14.0089 10.2536 13.7302 10.4309C13.4515 10.6083 13.2045 10.7983 12.9892 11.0009C12.7865 11.1909 12.6219 11.4126 12.4952 11.6659C12.3812 11.9066 12.3242 12.1853 12.3242 12.5019C12.3242 12.9453 12.4065 13.2936 12.5712 13.5469C12.7359 13.8003 12.9765 13.9269 13.2932 13.9269ZM22.1126 15.6749C21.2133 15.6749 20.4913 15.3963 19.9466 14.8389C19.402 14.2689 19.0916 13.5216 19.0156 12.5969L20.7066 12.0839C20.808 12.7806 20.979 13.3063 21.2196 13.6609C21.4603 14.0029 21.815 14.1739 22.2836 14.1739C22.651 14.1739 22.9296 14.0726 23.1196 13.8699C23.3096 13.6546 23.4046 13.3696 23.4046 13.0149C23.4046 12.6983 23.335 12.4133 23.1956 12.1599C23.0563 11.9066 22.8283 11.6469 22.5116 11.3809L20.6306 9.76595C20.2506 9.43662 19.9276 9.06928 19.6616 8.66395C19.4083 8.25862 19.2816 7.73295 19.2816 7.08695C19.2816 6.50428 19.3956 6.01662 19.6236 5.62395C19.8643 5.21862 20.1936 4.91462 20.6116 4.71195C21.0423 4.49662 21.5426 4.38895 22.1126 4.38895C23.0246 4.38895 23.7213 4.67395 24.2026 5.24395C24.684 5.80128 24.9626 6.47895 25.0386 7.27695L23.5946 7.78995C23.544 7.40995 23.468 7.08062 23.3666 6.80195C23.2653 6.51062 23.1196 6.28895 22.9296 6.13695C22.7396 5.97228 22.4926 5.88995 22.1886 5.88995C21.8593 5.88995 21.5933 6.00395 21.3906 6.23195C21.2006 6.44728 21.1056 6.70695 21.1056 7.01095C21.1056 7.20095 21.1436 7.39095 21.2196 7.58095C21.3083 7.75828 21.454 7.93562 21.6566 8.11295L23.5946 9.89895C23.8606 10.1396 24.1076 10.3993 24.3356 10.6779C24.5763 10.9566 24.7726 11.2733 24.9246 11.6279C25.0766 11.9826 25.1526 12.3943 25.1526 12.8629C25.1526 13.4836 25.026 14.0029 24.7726 14.4209C24.5193 14.8389 24.1646 15.1556 23.7086 15.3709C23.2526 15.5736 22.7206 15.6749 22.1126 15.6749ZM30.5491 15.6749C29.9791 15.6749 29.5167 15.5673 29.1621 15.3519C28.8201 15.1366 28.5667 14.8326 28.4021 14.4399C28.2501 14.0473 28.1741 13.5849 28.1741 13.0529V5.88995H27.0151V4.54095H28.1741V1.32995H30.2071V4.54095H31.9741V5.88995H30.2071V12.9199C30.2071 13.3506 30.2767 13.6609 30.4161 13.8509C30.5554 14.0283 30.8214 14.1169 31.2141 14.1169C31.3154 14.1169 31.4294 14.1106 31.5561 14.0979C31.6954 14.0853 31.8284 14.0726 31.9551 14.0599V15.5609C31.7017 15.5989 31.4674 15.6243 31.2521 15.6369C31.0367 15.6623 30.8024 15.6749 30.5491 15.6749ZM34.5888 15.5229V0.132948H38.4078C39.3325 0.132948 40.0671 0.303948 40.6118 0.645948C41.1691 0.975282 41.5745 1.45662 41.8278 2.08995C42.0811 2.72328 42.2078 3.48962 42.2078 4.38895C42.2078 5.19962 42.0621 5.90262 41.7708 6.49795C41.4921 7.09328 41.0741 7.55562 40.5168 7.88495C39.9595 8.20162 39.2628 8.35995 38.4268 8.35995H36.7358V15.5229H34.5888ZM36.7358 6.82095H37.7238C38.3445 6.82095 38.8321 6.75128 39.1868 6.61195C39.5415 6.47262 39.7948 6.23195 39.9468 5.88995C40.0988 5.53528 40.1748 5.04128 40.1748 4.40795C40.1748 3.67328 40.1178 3.10962 40.0038 2.71695C39.9025 2.32428 39.6808 2.05195 39.3388 1.89995C38.9968 1.74795 38.4648 1.67195 37.7428 1.67195H36.7358V6.82095ZM44.4238 15.5229V4.54095H46.4568V6.09895C46.8622 5.42762 47.2675 4.97795 47.6728 4.74995C48.0782 4.52195 48.4835 4.40795 48.8888 4.40795C48.9395 4.40795 48.9838 4.40795 49.0218 4.40795C49.0725 4.40795 49.1358 4.41428 49.2118 4.42695V6.66895C49.0598 6.60562 48.8825 6.55495 48.6798 6.51695C48.4898 6.46628 48.2935 6.44095 48.0908 6.44095C47.7742 6.44095 47.4828 6.51695 47.2168 6.66895C46.9635 6.80828 46.7102 7.08695 46.4568 7.50495V15.5229H44.4238ZM54.4056 15.6749C53.5443 15.6749 52.8793 15.5103 52.4106 15.1809C51.942 14.8389 51.6126 14.3449 51.4226 13.6989C51.2453 13.0403 51.1566 12.2359 51.1566 11.2859V8.77795C51.1566 7.80262 51.2516 6.99195 51.4416 6.34595C51.6316 5.69995 51.961 5.21228 52.4296 4.88295C52.911 4.55362 53.5696 4.38895 54.4056 4.38895C55.3303 4.38895 56.008 4.57895 56.4386 4.95895C56.882 5.33895 57.1733 5.88995 57.3126 6.61195C57.452 7.32128 57.5216 8.17628 57.5216 9.17695V10.0699H53.1896V12.2739C53.1896 12.7173 53.2276 13.0783 53.3036 13.3569C53.3923 13.6356 53.5253 13.8446 53.7026 13.9839C53.8926 14.1106 54.1333 14.1739 54.4246 14.1739C54.7286 14.1739 54.9566 14.1043 55.1086 13.9649C55.2733 13.8129 55.381 13.6039 55.4316 13.3379C55.495 13.0593 55.5266 12.7363 55.5266 12.3689V11.7039H57.5026V12.1219C57.5026 13.2239 57.2683 14.0916 56.7996 14.7249C56.331 15.3583 55.533 15.6749 54.4056 15.6749ZM53.1896 8.96795H55.5266V7.97995C55.5266 7.52395 55.5013 7.14395 55.4506 6.83995C55.4 6.52328 55.2923 6.28895 55.1276 6.13695C54.9756 5.97228 54.7286 5.88995 54.3866 5.88995C54.0573 5.88995 53.804 5.96595 53.6266 6.11795C53.462 6.26995 53.348 6.52962 53.2846 6.89695C53.2213 7.25162 53.1896 7.74562 53.1896 8.37895V8.96795ZM62.8587 15.6749C61.9594 15.6749 61.2374 15.3963 60.6927 14.8389C60.1481 14.2689 59.8377 13.5216 59.7617 12.5969L61.4527 12.0839C61.5541 12.7806 61.7251 13.3063 61.9657 13.6609C62.2064 14.0029 62.5611 14.1739 63.0297 14.1739C63.3971 14.1739 63.6757 14.0726 63.8657 13.8699C64.0557 13.6546 64.1507 13.3696 64.1507 13.0149C64.1507 12.6983 64.0811 12.4133 63.9417 12.1599C63.8024 11.9066 63.5744 11.6469 63.2577 11.3809L61.3767 9.76595C60.9967 9.43662 60.6737 9.06928 60.4077 8.66395C60.1544 8.25862 60.0277 7.73295 60.0277 7.08695C60.0277 6.50428 60.1417 6.01662 60.3697 5.62395C60.6104 5.21862 60.9397 4.91462 61.3577 4.71195C61.7884 4.49662 62.2887 4.38895 62.8587 4.38895C63.7707 4.38895 64.4674 4.67395 64.9487 5.24395C65.4301 5.80128 65.7087 6.47895 65.7847 7.27695L64.3407 7.78995C64.2901 7.40995 64.2141 7.08062 64.1127 6.80195C64.0114 6.51062 63.8657 6.28895 63.6757 6.13695C63.4857 5.97228 63.2387 5.88995 62.9347 5.88995C62.6054 5.88995 62.3394 6.00395 62.1367 6.23195C61.9467 6.44728 61.8517 6.70695 61.8517 7.01095C61.8517 7.20095 61.8897 7.39095 61.9657 7.58095C62.0544 7.75828 62.2001 7.93562 62.4027 8.11295L64.3407 9.89895C64.6067 10.1396 64.8537 10.3993 65.0817 10.6779C65.3224 10.9566 65.5187 11.2733 65.6707 11.6279C65.8227 11.9826 65.8987 12.3943 65.8987 12.8629C65.8987 13.4836 65.7721 14.0029 65.5187 14.4209C65.2654 14.8389 64.9107 15.1556 64.4547 15.3709C63.9987 15.5736 63.4667 15.6749 62.8587 15.6749ZM70.9152 15.6749C70.0158 15.6749 69.2938 15.3963 68.7492 14.8389C68.2045 14.2689 67.8942 13.5216 67.8182 12.5969L69.5092 12.0839C69.6105 12.7806 69.7815 13.3063 70.0222 13.6609C70.2628 14.0029 70.6175 14.1739 71.0862 14.1739C71.4535 14.1739 71.7322 14.0726 71.9222 13.8699C72.1122 13.6546 72.2072 13.3696 72.2072 13.0149C72.2072 12.6983 72.1375 12.4133 71.9982 12.1599C71.8588 11.9066 71.6308 11.6469 71.3142 11.3809L69.4332 9.76595C69.0532 9.43662 68.7302 9.06928 68.4642 8.66395C68.2108 8.25862 68.0842 7.73295 68.0842 7.08695C68.0842 6.50428 68.1982 6.01662 68.4262 5.62395C68.6668 5.21862 68.9962 4.91462 69.4142 4.71195C69.8448 4.49662 70.3452 4.38895 70.9152 4.38895C71.8272 4.38895 72.5238 4.67395 73.0052 5.24395C73.4865 5.80128 73.7652 6.47895 73.8412 7.27695L72.3972 7.78995C72.3465 7.40995 72.2705 7.08062 72.1692 6.80195C72.0678 6.51062 71.9222 6.28895 71.7322 6.13695C71.5422 5.97228 71.2952 5.88995 70.9912 5.88995C70.6618 5.88995 70.3958 6.00395 70.1932 6.23195C70.0032 6.44728 69.9082 6.70695 69.9082 7.01095C69.9082 7.20095 69.9462 7.39095 70.0222 7.58095C70.1108 7.75828 70.2565 7.93562 70.4592 8.11295L72.3972 9.89895C72.6632 10.1396 72.9102 10.3993 73.1382 10.6779C73.3788 10.9566 73.5752 11.2733 73.7272 11.6279C73.8792 11.9826 73.9552 12.3943 73.9552 12.8629C73.9552 13.4836 73.8285 14.0029 73.5752 14.4209C73.3218 14.8389 72.9672 15.1556 72.5112 15.3709C72.0552 15.5736 71.5232 15.6749 70.9152 15.6749ZM76.3306 15.5229V13.2619H78.3636V15.5229H76.3306Z"/>
</svg>
