<svg width="16" height="17" viewBox="0 0 16 17" xmlns="http://www.w3.org/2000/svg">
<path d="M8.5 0C9.21527 0 9.90992 0.0883647 10.5736 0.254753C10.7816 0.306904 10.7521 0.609318 10.5423 0.653792C7.37667 1.32485 5.00105 4.13446 5.00098 7.5C5.00098 11.3659 8.13517 14.4998 12.001 14.5C12.8319 14.5 13.6285 14.3539 14.3676 14.0874C14.5694 14.0147 14.7537 14.2566 14.6045 14.4107C13.0598 16.0067 10.8966 17 8.5 17C3.80558 17 0 13.1944 0 8.5C2.42238e-05 3.80559 3.80559 2.42246e-05 8.5 0Z" />
<circle cx="12.5" cy="4.00025" r="0.500003" />
<circle cx="15" cy="8.50001" r="1.00001" />
<circle cx="15.5" cy="6.00025" r="0.500003" />
</svg>
