<svg width="13" height="12" viewBox="0 0 13 12" fill="none" xmlns="http://www.w3.org/2000/svg">
<path fill-rule="evenodd" clip-rule="evenodd" d="M6.48649 1.3427C7.23803 0.519074 8.29096 0.0347259 9.40541 0C11.3757 0 12.973 1.59725 12.973 3.56757C12.973 5.90026 10.3798 8.45677 8.8246 9.99004C8.68458 10.1281 8.55298 10.2578 8.43243 10.3784L6.95351 11.8573C6.86237 11.9486 6.73871 11.9999 6.60973 12H6.36324C6.23426 11.9999 6.11061 11.9486 6.01946 11.8573L4.54054 10.3784C4.42 10.2578 4.28839 10.1281 4.14837 9.99004C2.59314 8.45677 0 5.90026 0 3.56757C0 1.59725 1.59725 0 3.56757 0C4.68201 0.0347259 5.73494 0.519074 6.48649 1.3427ZM6.48542 10.4886L7.91244 9.08099C9.2292 7.78369 11.6746 5.35774 11.6746 3.56747C11.6746 2.96197 11.4328 2.38155 11.0028 1.95523C10.5728 1.52891 9.99035 1.29201 9.38488 1.2972C8.37643 1.39082 7.46612 1.94035 6.91352 2.78909C6.85162 2.86997 6.75591 2.91783 6.65407 2.91882H6.36217C6.21062 2.91841 6.06746 2.84922 5.97298 2.73072C5.42916 1.91325 4.54429 1.38615 3.5665 1.2972C2.31266 1.2972 1.29623 2.31364 1.29623 3.56747C1.29623 5.35774 3.74163 7.78369 5.05839 9.08099L6.48542 10.4886Z" fill="#222222"/>
</svg>
