<svg width="12" height="12" viewBox="0 0 12 12" xmlns="http://www.w3.org/2000/svg">
<path d="M12 6.15534C11.998 8.80144 10.3453 11.1496 7.8963 11.9858C7.80464 12.0148 7.70507 11.9989 7.62632 11.9428C7.54758 11.884 7.5008 11.7904 7.50033 11.6906V10.0485C7.51331 9.60618 7.40967 9.16849 7.20035 8.78151C7.16869 8.73092 7.16869 8.66605 7.20035 8.61546C7.22469 8.5688 7.26925 8.53682 7.32034 8.52935C8.78424 8.37559 9.60018 7.77902 9.60018 6.15534C9.63547 5.39723 9.3791 4.6552 8.88623 4.08884C8.95811 3.8496 8.99649 3.60111 9.00022 3.35081C8.99765 3.12639 8.96741 2.90322 8.91023 2.68658C8.8725 2.54212 8.73715 2.44787 8.59225 2.46517C8.04254 2.54515 7.53084 2.79883 7.12836 3.1909C6.3833 3.04333 5.61758 3.04333 4.87252 3.1909C4.47004 2.79883 3.95834 2.54515 3.40863 2.46517C3.26373 2.44787 3.12838 2.54212 3.09066 2.68658C3.03347 2.90322 3.00324 3.12639 3.00066 3.35081C3.00439 3.60111 3.04277 3.8496 3.11465 4.08884C2.62178 4.6552 2.36542 5.39723 2.40071 6.15534C2.40071 7.86512 3.30664 8.4371 4.96852 8.57855C4.76222 8.85568 4.62061 9.17758 4.55455 9.51955V9.51955C4.55455 9.51955 4.55455 9.5626 4.55455 9.59335C4.55166 9.62198 4.55166 9.65083 4.55455 9.67946C4.52958 9.8728 4.36 10.0113 4.17058 9.99312V9.99312C4.08026 9.98876 3.99206 9.96353 3.91259 9.91932C3.58574 9.71524 3.29721 9.45278 3.06066 9.14438C2.90994 8.9692 2.7497 8.80287 2.58069 8.64621C2.47331 8.55091 2.35432 8.47029 2.22672 8.40635C2.1373 8.35485 2.02816 8.35485 1.93874 8.40635C1.8529 8.4628 1.80092 8.56011 1.80075 8.66466V8.70156C1.80092 8.80611 1.8529 8.90341 1.93874 8.95987C2.1541 9.14467 2.34029 9.36251 2.4907 9.60565C2.74471 10.0137 3.06776 10.3719 3.44463 10.6635C3.69294 10.8342 3.98563 10.9242 4.28457 10.9218H4.50055V11.6906C4.50009 11.7904 4.4533 11.884 4.37456 11.9428C4.29581 11.9989 4.19625 12.0148 4.10458 11.9858C1.19602 10.9927 -0.514333 7.91155 0.138497 4.84097C0.791327 1.77038 3.59732 -0.301736 6.64521 0.0360012C9.6931 0.373738 12.0023 3.01268 12 6.15534Z" />
</svg>
