<svg width="13" height="12" viewBox="0 0 13 12" xmlns="http://www.w3.org/2000/svg">
<path fill-rule="evenodd" clip-rule="evenodd" d="M0 1.41169C0 0.632037 0.628295 0 1.40334 0C1.77552 0 2.13247 0.148732 2.39564 0.413475C2.65882 0.678219 2.80667 1.03729 2.80667 1.41169C2.80667 2.19135 2.17838 2.82339 1.40334 2.82339C0.628295 2.82339 0 2.19135 0 1.41169ZM12.2808 7.34827C12.305 5.81998 11.2686 4.48073 9.7899 4.12948C8.79896 3.91482 7.76606 4.1963 7.0183 4.88476V4.58829C7.0183 4.39337 6.86123 4.23536 6.66747 4.23536H4.9133C4.71953 4.23536 4.56246 4.39337 4.56246 4.58829V11.6471C4.56246 11.842 4.71953 12 4.9133 12H6.66747C6.86123 12 7.0183 11.842 7.0183 11.6471V7.66592C7.00098 6.95702 7.49211 6.33793 8.18308 6.19769C8.5945 6.12625 9.01619 6.2428 9.33357 6.5157C9.65095 6.78859 9.83107 7.18948 9.82498 7.60945V11.6471C9.82498 11.842 9.98206 12 10.1758 12H11.93C12.1238 12 12.2808 11.842 12.2808 11.6471V7.34827ZM2.80531 4.58803V11.647C2.80531 11.842 2.64823 12 2.45447 12H0.7003C0.506539 12 0.349465 11.842 0.349465 11.647V4.58803C0.349465 4.3931 0.506539 4.23508 0.7003 4.23508H2.45447C2.64823 4.23508 2.80531 4.3931 2.80531 4.58803Z" />
</svg>
