<svg width="14" height="12" viewBox="0 0 14 12" xmlns="http://www.w3.org/2000/svg">
<path d="M13.9795 1.73914C13.6183 2.22503 13.1817 2.64888 12.6865 2.99432C12.6865 3.12125 12.6865 3.24818 12.6865 3.38215C12.6904 5.68715 11.7774 7.89735 10.152 9.51726C8.52668 11.1372 6.32497 12.0313 4.04048 11.9992C2.71977 12.0036 1.41597 11.6995 0.231211 11.1107C0.167329 11.0825 0.126126 11.0188 0.126369 10.9485V10.8709C0.126369 10.7697 0.20773 10.6876 0.308095 10.6876C1.60632 10.6444 2.85824 10.1905 3.88671 9.39009C2.71163 9.36622 1.65436 8.66426 1.1678 7.58489C1.14322 7.52593 1.15088 7.45831 1.18799 7.40646C1.22511 7.35461 1.28633 7.32603 1.34953 7.33103C1.70666 7.36723 2.06736 7.33371 2.41193 7.23231C1.11474 6.96077 0.140052 5.87481 0.000558004 4.54566C-0.00439979 4.4819 0.023936 4.42014 0.0753288 4.38269C0.126722 4.34525 0.193742 4.33753 0.252179 4.36232C0.600288 4.51722 0.97607 4.5988 1.35652 4.60208C0.219874 3.84977 -0.27108 2.41886 0.161316 1.1186C0.20595 0.992256 0.313181 0.898918 0.443606 0.872891C0.57403 0.846864 0.708408 0.891986 0.797359 0.991675C2.33119 2.63785 4.43869 3.61879 6.67551 3.72768C6.61822 3.49713 6.59004 3.2602 6.59164 3.02253C6.61256 1.77625 7.37725 0.666047 8.52772 0.211666C9.67818 -0.242715 10.9867 0.0486545 11.8407 0.949366C12.4229 0.837533 12.9857 0.640351 13.5112 0.364086C13.5497 0.33985 13.5985 0.33985 13.637 0.364086C13.6611 0.402925 13.6611 0.452176 13.637 0.491015C13.3825 1.07884 12.9524 1.57186 12.4069 1.90133C12.8846 1.84546 13.354 1.73182 13.8048 1.56285C13.8427 1.5368 13.8926 1.5368 13.9306 1.56285C13.9624 1.57752 13.9862 1.60558 13.9956 1.63955C14.005 1.67351 13.9991 1.70995 13.9795 1.73914Z" />
</svg>
