<svg width="14" height="16" viewBox="0 0 14 16" xmlns="http://www.w3.org/2000/svg">
<path fill-rule="evenodd" clip-rule="evenodd" d="M6.99773 12.2367C6.86514 12.2367 6.73846 12.1851 6.64773 12.0941L0.857723 6.64471C0.763066 6.55635 0.709823 6.43607 0.709823 6.31059C0.709823 6.18512 0.763066 6.06484 0.857723 5.97648L1.05772 5.78824C1.1518 5.69633 1.28214 5.64521 1.41772 5.64706H3.99773V0.470589C3.99773 0.21069 4.22158 0 4.49773 0H9.49773C9.77387 0 9.99773 0.21069 9.99773 0.470589V5.64706H12.5777C12.7133 5.64521 12.8437 5.69633 12.9377 5.78824L13.1377 5.97648C13.2324 6.06484 13.2856 6.18512 13.2856 6.31059C13.2856 6.43607 13.2324 6.55635 13.1377 6.64471L7.34773 12.0941C7.257 12.1851 7.13031 12.2367 6.99773 12.2367ZM14 15.5296V14.5884C14 14.3285 13.7762 14.1178 13.5 14.1178H0.500001C0.223858 14.1178 0 14.3285 0 14.5884V15.5296C0 15.7894 0.223858 16.0001 0.500001 16.0001H13.5C13.7762 16.0001 14 15.7894 14 15.5296Z" />
</svg>
