<svg width="18" height="16" viewBox="0 0 18 16" xmlns="http://www.w3.org/2000/svg">
<path d="M10.0102 1V15C10.0102 15.5523 9.56203 16 9.00918 16H8.41858C8.15597 15.9989 7.90431 15.8947 7.71786 15.71L3.88396 11.88C3.32131 11.3172 2.55799 11.0007 1.7618 11V11C0.788783 11 0 10.212 0 9.24V6.76C0 5.78798 0.788783 5 1.7618 5C2.55799 4.9993 3.32131 4.68277 3.88396 4.12L7.71786 0.29C7.90431 0.105256 8.15597 0.00110462 8.41858 0H9.00918C9.56203 0 10.0102 0.447715 10.0102 1Z"/>
<rect x="10.9004" y="5.81934" width="1.76032" height="8.2804" rx="0.440081" transform="rotate(-45 10.9004 5.81934)"/>
<rect x="12.1445" y="11.6744" width="1.76032" height="8.2804" rx="0.440081" transform="rotate(-135 12.1445 11.6744)"/>
</svg>
