<svg width="18" height="16" viewBox="0 0 18 16" xmlns="http://www.w3.org/2000/svg">
<path fill-rule="evenodd" clip-rule="evenodd" d="M10.0102 1V15C10.0102 15.5523 9.56203 16 9.00918 16H8.41858C8.15597 15.9989 7.90431 15.8947 7.71786 15.71L3.88396 11.88C3.32131 11.3172 2.55799 11.0007 1.7618 11C0.788783 11 0 10.212 0 9.24V6.76C0 5.78798 0.788783 5 1.7618 5C2.55799 4.9993 3.32131 4.68277 3.88396 4.12L7.71786 0.29C7.90431 0.105256 8.15597 0.00110462 8.41858 0H9.00918C9.56203 0 10.0102 0.447715 10.0102 1ZM16.0165 2.72987C15.9202 2.63251 15.7926 2.57229 15.6561 2.55987C15.5172 2.55633 15.383 2.61067 15.2858 2.70987L14.575 3.41987C14.397 3.61165 14.397 3.9081 14.575 4.09987C16.4975 6.34522 16.4975 9.65453 14.575 11.8999C14.397 12.0917 14.397 12.3881 14.575 12.5799L15.2858 13.2899C15.383 13.3891 15.5172 13.4434 15.6561 13.4399C15.7931 13.4292 15.9213 13.3687 16.0165 13.2699C18.6607 10.253 18.6607 5.74671 16.0165 2.72987ZM12.4639 5.54994C12.5679 5.44864 12.709 5.39442 12.8543 5.39994C12.9987 5.417 13.1312 5.48854 13.2246 5.59994C14.2924 7.02216 14.2924 8.97771 13.2246 10.3999C13.133 10.512 12.9988 10.5808 12.8543 10.5899C12.7103 10.5993 12.569 10.5486 12.4639 10.4499L11.7531 9.72994C11.5825 9.56345 11.5532 9.29979 11.6831 9.09994C12.1231 8.43247 12.1231 7.5674 11.6831 6.89994C11.5532 6.70009 11.5825 6.43643 11.7531 6.26994L12.4639 5.54994Z" />
</svg>
