<svg width="11" height="8" viewBox="0 0 11 8" xmlns="http://www.w3.org/2000/svg">
<path d="M0.5 3.18201C0.223858 3.18201 0 3.40586 0 3.68201C0 3.95815 0.223858 4.18201 0.5 4.18201V3.68201V3.18201ZM10.8536 4.03556C11.0488 3.8403 11.0488 3.52372 10.8536 3.32845L7.67157 0.146473C7.47631 -0.0487893 7.15973 -0.0487893 6.96447 0.146473C6.7692 0.341735 6.7692 0.658318 6.96447 0.85358L9.79289 3.68201L6.96447 6.51043C6.7692 6.7057 6.7692 7.02228 6.96447 7.21754C7.15973 7.4128 7.47631 7.4128 7.67157 7.21754L10.8536 4.03556ZM0.5 3.68201V4.18201H10.5V3.68201V3.18201H0.5V3.68201Z" />
</svg>
