<svg width="30" height="17" viewBox="0 0 30 17" xmlns="http://www.w3.org/2000/svg">
<path d="M25.3125 7.5C24.9788 7.5 24.6513 7.53625 24.335 7.6025C23.9138 3.34125 20.3075 0 15.9375 0C15.42 0 15 0.42 15 0.9375V15.9375C15 16.455 15.42 16.875 15.9375 16.875H25.3125C27.8988 16.875 30 14.7737 30 12.1875C30 9.60375 27.8988 7.5 25.3125 7.5Z" fill="black"/>
<path d="M11.25 2.8125V15.9375C11.25 16.455 11.67 16.875 12.1875 16.875C12.705 16.875 13.125 16.455 13.125 15.9375V2.8125C13.125 2.295 12.705 1.875 12.1875 1.875C11.67 1.875 11.25 2.295 11.25 2.8125Z" fill="black"/>
<path d="M7.5 6.5625V15.9375C7.5 16.455 7.92 16.875 8.4375 16.875C8.955 16.875 9.375 16.455 9.375 15.9375V6.5625C9.375 6.045 8.955 5.625 8.4375 5.625C7.92 5.625 7.5 6.045 7.5 6.5625Z" fill="black"/>
<path d="M3.75 15.9375C3.75 16.455 4.17 16.875 4.6875 16.875C5.205 16.875 5.625 16.455 5.625 15.9375V6.5625C5.625 6.045 5.205 5.625 4.6875 5.625C4.17 5.625 3.75 6.045 3.75 6.5625V15.9375Z" fill="black"/>
<path d="M0.9375 16.875C1.455 16.875 1.875 16.455 1.875 15.9375V10.3125C1.875 9.795 1.455 9.375 0.9375 9.375C0.42 9.375 0 9.795 0 10.3125V15.9375C0 16.455 0.42 16.875 0.9375 16.875Z" />
</svg>
